<svg width="40" height="40" viewBox="0 0 40 40" fill="none" xmlns="http://www.w3.org/2000/svg">
<path d="M38.3117 14.2773C37.8781 13.2469 37.1578 12.5039 36.2281 12.1297L36.2156 12.125C35.7925 11.9593 35.3419 11.8745 34.8875 11.875H34.8375C32.7094 11.907 30.5367 13.7156 29.432 16.3758C28.6219 18.3211 28.5289 20.4133 29.1836 21.9727C29.6164 23.0039 30.3383 23.7469 31.2719 24.1211L31.282 24.125C31.7052 24.2906 32.1557 24.3754 32.6102 24.375C34.7586 24.375 36.9539 22.5664 38.0789 19.8711C38.8789 17.9281 38.9672 15.8375 38.3117 14.2773Z" fill="#F06B30"/>
<path d="M29.8086 25.7508C28.5812 25.0133 27.4211 24.3156 26.6633 23.0625C24.5727 19.5938 23.3102 17.5 20 17.5C16.6898 17.5 15.4242 19.5938 13.3289 23.0625C12.5695 24.3172 11.407 25.0156 10.1758 25.7562C8.76406 26.6047 7.30547 27.4812 6.67578 29.2062C6.43099 29.8281 6.30767 30.4911 6.3125 31.1594C6.3125 33.968 8.5 36.2531 11.1875 36.2531C12.5742 36.2531 14.05 35.7727 15.6117 35.2641C17.1133 34.775 18.6656 34.2695 20.0078 34.2695C21.35 34.2695 22.8984 34.775 24.3945 35.2641C25.9531 35.7695 27.4219 36.25 28.8125 36.25C31.4961 36.25 33.6797 33.9648 33.6797 31.1562C33.6819 30.4875 33.5559 29.8245 33.3086 29.2031C32.6789 27.4766 31.2195 26.5992 29.8086 25.7508Z" fill="#F06B30"/>
<path d="M11.7187 14.7539C12.6484 15.9203 13.8281 16.5625 15.0406 16.5625C15.2061 16.5625 15.3714 16.5502 15.5352 16.5258C18.0641 16.1539 19.6398 13.068 19.1227 9.49453C18.9062 7.99219 18.3281 6.59297 17.5 5.55547C16.5719 4.39141 15.3906 3.75 14.1789 3.75C14.0134 3.75001 13.8481 3.76228 13.6844 3.78672C11.1555 4.15859 9.57969 7.24453 10.0969 10.818C10.3125 12.318 10.8906 13.7156 11.7187 14.7539Z" fill="#F06B30"/>
<path d="M24.4656 16.5258C24.6293 16.5502 24.7946 16.5625 24.9602 16.5625C26.1734 16.5625 27.3523 15.9203 28.282 14.7539C29.1094 13.7156 29.6844 12.3179 29.9031 10.8164C30.4203 7.24451 28.8445 4.15857 26.3156 3.78513C26.1519 3.76069 25.9866 3.74842 25.8211 3.74841C24.6094 3.74998 23.4281 4.39138 22.5 5.55544C21.6719 6.59294 21.0937 7.99216 20.8781 9.49607C20.3609 13.0679 21.9367 16.1539 24.4656 16.5258Z" fill="#F06B30"/>
<path d="M8.71797 24.125L8.72891 24.1211C9.66094 23.7469 10.382 23.0047 10.8141 21.9742C11.4688 20.4117 11.3766 18.3219 10.568 16.3766C9.44844 13.6844 7.25391 11.875 5.10781 11.875C4.65335 11.8743 4.20281 11.9592 3.77969 12.125L3.76875 12.1289C2.83906 12.5 2.11797 13.2453 1.68594 14.2758C1.03125 15.8383 1.12344 17.9281 1.93203 19.8734C3.05156 22.5656 5.2461 24.375 7.39219 24.375C7.84587 24.3754 8.29558 24.2906 8.71797 24.125Z" fill="#F06B30"/>
</svg>
