<svg width="50" height="50" viewBox="0 0 50 50" fill="none" xmlns="http://www.w3.org/2000/svg">
<path d="M25 1.92004C12.253 1.92004 1.92001 12.253 1.92001 25C1.92001 37.747 12.253 48.08 25 48.08C37.747 48.08 48.08 37.747 48.08 25C48.08 12.253 37.747 1.92004 25 1.92004ZM32.5685 26.286C31.6415 26.2705 30.794 26.2975 29.7165 26.251C29.5415 26.243 26.735 26.285 26.7435 26.336C26.9475 27.584 26.6545 28.91 26.672 30.172C26.6825 30.9075 26.8985 37.5615 26.799 40.016L21.2375 40.067C21.2145 37.977 21.3165 35.8275 21.226 33.071C21.2075 32.5045 21.189 26.5405 21.123 26.2265C21.123 26.2265 18.665 26.244 17.516 26.251C17.516 26.251 17.5005 24.05 17.5005 23.3055C17.5005 22.574 17.5005 21.8435 17.5005 21.112C17.5005 21.112 20.3695 20.953 21.193 20.8815C21.193 20.8815 21.277 18.0895 21.391 17.185C21.5225 16.152 21.5355 15.108 22.142 14.194C23.2535 12.521 24.3505 11.0465 26.394 10.602C27.167 10.433 32.2645 9.43104 32.4535 10.2555L32.3375 15.2195C30.9515 15.2195 29.2905 15.079 27.876 16.1295C27.0885 16.7155 26.871 17.2035 26.7915 18.1675C26.744 18.728 26.733 20.9965 26.733 20.9965C27.48 21.103 28.5855 21.056 29.3885 20.9965C30.2955 20.929 32.624 21.1695 32.624 21.1695C32.623 22.671 32.563 26.1375 32.5685 26.286Z" fill="#3A5897"/>
</svg>
