<svg width="44" height="42" viewBox="0 0 44 42" fill="none" xmlns="http://www.w3.org/2000/svg">
<path d="M22.1376 1.61072C11.3155 1.61072 2.54285 10.2793 2.54285 20.9731C2.54285 31.6669 11.3155 40.3356 22.1376 40.3356C32.9597 40.3356 41.7324 31.6669 41.7324 20.9731C41.7324 10.2793 32.9597 1.61072 22.1376 1.61072ZM28.5632 22.052C27.7762 22.039 27.0567 22.0616 26.1419 22.0226C25.9933 22.0159 23.6106 22.0512 23.6178 22.0939C23.791 23.1409 23.5423 24.2533 23.5571 25.3121C23.566 25.9291 23.7494 31.5113 23.665 33.5704L18.9433 33.6132C18.9237 31.8599 19.0103 30.0566 18.9335 27.7441C18.9178 27.2689 18.9021 22.2655 18.8461 22.0021C18.8461 22.0021 16.7592 22.0168 15.7837 22.0226C15.7837 22.0226 15.7706 20.1762 15.7706 19.5516C15.7706 18.9379 15.7706 18.3251 15.7706 17.7114C15.7706 17.7114 18.2063 17.578 18.9055 17.518C18.9055 17.518 18.9768 15.1757 19.0736 14.4169C19.1852 13.5503 19.1963 12.6745 19.7112 11.9077C20.6548 10.5042 21.5862 9.26718 23.3211 8.89427C23.9774 8.7525 28.3051 7.91189 28.4656 8.60359L28.3671 12.768C27.1904 12.768 25.7802 12.6501 24.5793 13.5314C23.9107 14.023 23.7261 14.4324 23.6586 15.2412C23.6183 15.7114 23.6089 17.6145 23.6089 17.6145C24.2431 17.7038 25.1817 17.6644 25.8634 17.6145C26.6335 17.5579 28.6103 17.7596 28.6103 17.7596C28.6095 19.0193 28.5585 21.9274 28.5632 22.052Z" fill="#F06B30"/>
</svg>
