<svg width="50" height="50" viewBox="0 0 50 50" fill="none" xmlns="http://www.w3.org/2000/svg">
<path d="M26.5705 21.0575C24.5095 20.1495 21.9695 21.227 21.091 23.2605C20.5175 24.588 20.5115 25.9215 20.98 27.0205C21.568 28.4 22.903 29.4095 24.8005 29.576C26.9795 29.7665 28.8475 28.2225 29.3495 26.1365C29.818 24.1865 28.366 21.849 26.5705 21.0575Z" fill="#D16297"/>
<path d="M29.5905 13.9805C26.1025 13.858 22.6175 14.0175 19.128 14.1115C14.6455 14.2315 13.7575 19.311 13.852 23.248C13.8675 23.896 13.854 24.559 13.8315 25.229C13.729 28.344 13.814 33.824 16.7735 35.4305C17.99 36.0915 19.452 36.113 20.7985 36.063C22.417 36.002 24.0225 35.9965 25.641 36.079C27.9015 36.194 30.1375 36.283 32.366 35.753C35.4565 35.017 35.988 33.4835 36.207 30.7335C36.302 29.5325 36.2055 28.085 36.2155 26.598C36.236 23.358 36.952 17.634 34.141 15.2145C32.909 14.1555 31.1395 14.036 29.5905 13.9805ZM28.691 31.035C25.002 33.677 19.5645 31.509 18.3115 27.289C18.2265 27.0035 18.1605 26.709 18.116 26.405C17.797 24.237 18.6965 20.733 20.8465 19.398C25.1355 16.7345 28.6975 18.688 30.224 20.5075C31.0455 21.4875 31.654 22.873 31.865 24.1485C32.299 26.776 30.794 29.528 28.691 31.035ZM32.636 19.65C31.678 19.9435 30.2425 18.9265 30.9265 17.2235C31.286 16.3295 32.1885 16.088 33.2635 16.667C34.1085 17.1225 34.239 19.16 32.636 19.65Z" fill="#D16297"/>
<path d="M25 1.92004C12.253 1.92004 1.92001 12.253 1.92001 25C1.92001 37.747 12.253 48.08 25 48.08C37.747 48.08 48.08 37.747 48.08 25C48.08 12.253 37.747 1.92004 25 1.92004ZM38.5385 25.086C38.5745 26.833 38.466 28.5785 38.5145 30.3275C38.6025 33.4945 37.46 36.5475 34.2625 37.7985C30.3845 39.3155 25.6565 38.481 21.591 38.481C19.8305 38.481 18.021 38.6215 16.3315 38.1205C15.039 37.7365 14.2055 37.0055 13.31 36.0025C12.907 35.5515 12.644 35.0995 12.4285 34.5475C11.388 31.878 11.588 29.4275 11.4725 26.6185C11.406 25.0135 11.4355 23.405 11.4505 21.798C11.4715 19.602 11.456 17.6375 12.264 15.5585C13.08 13.4575 15.8785 11.801 18.0485 11.6585C22.499 11.3675 27.186 10.981 31.61 11.692C33.3545 11.9725 35.1925 12.5465 36.4465 13.8505C38.0805 15.5485 38.479 17.9745 38.5535 20.413C38.6035 22.0355 38.5095 23.663 38.5385 25.086Z" fill="#D16297"/>
</svg>
