<svg width="43" height="42" viewBox="0 0 43 42" fill="none" xmlns="http://www.w3.org/2000/svg">
<path d="M23.1085 17.6657C21.3587 16.904 19.2023 17.8079 18.4564 19.5139C17.9696 20.6275 17.9645 21.7462 18.3622 22.6682C18.8614 23.8255 19.9948 24.6724 21.6058 24.8121C23.4557 24.9719 25.0417 23.6766 25.4679 21.9266C25.8656 20.2907 24.6329 18.3297 23.1085 17.6657Z" fill="#F06B30"/>
<path d="M25.6725 11.7286C22.7112 11.6258 19.7525 11.7596 16.7899 11.8385C12.9843 11.9392 12.2304 16.2005 12.3106 19.5033C12.3238 20.047 12.3123 20.6032 12.2932 21.1653C12.2062 23.7785 12.2784 28.3758 14.791 29.7236C15.8238 30.2781 17.065 30.2961 18.2082 30.2542C19.5822 30.203 20.9453 30.1984 22.3194 30.2676C24.2386 30.3641 26.1369 30.4387 28.0289 29.9941C30.6527 29.3767 31.1039 28.0902 31.2899 25.7831C31.3705 24.7756 31.2886 23.5612 31.2971 22.3137C31.3145 19.5956 31.9224 14.7936 29.5358 12.7638C28.4899 11.8754 26.9876 11.7752 25.6725 11.7286ZM24.9088 26.0361C21.7769 28.2525 17.1605 26.4337 16.0967 22.8934C16.0245 22.6539 15.9685 22.4069 15.9307 22.1518C15.6599 20.333 16.4236 17.3934 18.2489 16.2735C21.8902 14.039 24.9143 15.6778 26.2103 17.2043C26.9078 18.0264 27.4244 19.1887 27.6035 20.2588C27.972 22.4631 26.6943 24.7718 24.9088 26.0361ZM28.2581 16.4849C27.4448 16.7311 26.226 15.8779 26.8068 14.4492C27.112 13.6992 27.8782 13.4966 28.7909 13.9824C29.5083 14.3645 29.619 16.0738 28.2581 16.4849Z" fill="#F06B30"/>
<path d="M21.7752 1.61072C10.9531 1.61072 2.18042 10.2793 2.18042 20.9731C2.18042 31.6669 10.9531 40.3356 21.7752 40.3356C32.5973 40.3356 41.37 31.6669 41.37 20.9731C41.37 10.2793 32.5973 1.61072 21.7752 1.61072ZM33.2693 21.0453C33.2998 22.5109 33.2077 23.9752 33.2489 25.4425C33.3236 28.0994 32.3536 30.6606 29.639 31.7101C26.3466 32.9828 22.3325 32.2827 18.881 32.2827C17.3863 32.2827 15.8501 32.4006 14.4157 31.9803C13.3184 31.6581 12.6107 31.0449 11.8505 30.2034C11.5083 29.8251 11.285 29.4459 11.1021 28.9828C10.2187 26.7433 10.3885 24.6875 10.2904 22.3309C10.234 20.9845 10.259 19.635 10.2718 18.2869C10.2896 16.4446 10.2764 14.7965 10.9624 13.0524C11.6552 11.2898 14.0311 9.90015 15.8734 9.7806C19.6519 9.53647 23.6311 9.21223 27.387 9.8087C28.8681 10.044 30.4286 10.5256 31.4932 11.6195C32.8804 13.044 33.2188 15.0793 33.282 17.125C33.3245 18.4861 33.2447 19.8515 33.2693 21.0453Z" fill="#F06B30"/>
</svg>
