<svg width="50" height="50" viewBox="0 0 50 50" fill="none" xmlns="http://www.w3.org/2000/svg">
<path d="M25 1.92004C12.253 1.92004 1.92001 12.253 1.92001 25C1.92001 37.747 12.253 48.08 25 48.08C37.747 48.08 48.08 37.747 48.08 25C48.08 12.253 37.747 1.92004 25 1.92004ZM36.9435 18.9945C36.503 19.41 35.9535 20.1565 35.39 20.3905C35.4985 20.902 35.3895 21.495 35.287 22.007C35.17 22.5905 35.264 23.2275 35.085 23.7915C34.895 24.3905 34.839 25.011 34.6385 25.6085C34.407 26.2985 33.9975 27.019 33.5985 27.6195C33.2535 28.139 33.016 28.693 32.684 29.208C32.3015 29.8005 31.7745 30.173 31.3275 30.672C30.658 31.419 29.724 32.0385 28.861 32.62C28.147 33.1005 27.314 33.3095 26.5315 33.6655C26.225 33.805 25.8535 33.9205 25.5185 34.007C25.2165 34.0845 24.707 34.2745 24.3825 34.2745L23.7985 34.375C23.562 34.3965 22.9695 34.3515 22.6625 34.372C22.356 34.3915 22.061 34.306 21.747 34.307C20.9775 34.3085 20.2065 34.2835 19.449 34.184C18.1295 34.0105 16.6085 33.42 15.522 32.644C15.326 32.504 15.177 32.3065 14.9825 32.1635C16.1205 32.4305 17.556 32.388 18.64 31.9035C19.241 31.6345 19.923 31.5155 20.4625 31.1355C20.877 30.8425 21.362 30.5275 21.784 30.29C20.81 30.199 19.911 29.915 19.0265 29.4475C18.5905 29.2175 17.438 27.946 17.443 26.9775C18.1195 26.965 18.729 27.056 19.415 26.965C18.931 26.8365 18.5285 26.6255 18.0855 26.3305C17.5865 25.999 17.1685 25.753 16.652 25.189C16.045 24.527 15.849 23.255 15.9175 22.336C16.2305 22.367 16.492 22.5665 16.796 22.6575C17.1105 22.751 17.483 22.738 17.7825 22.886C16.7865 22.562 16.274 20.972 16.017 20.0855C15.7175 19.054 16.353 16.7175 16.374 16.657C17.1505 17.247 17.7195 18.1365 18.5005 18.6745C18.9525 18.9855 19.4665 19.3295 19.904 19.6385C20.126 19.795 20.294 19.868 20.5195 20.036C20.716 20.1815 21.016 20.2855 21.2345 20.384C21.797 20.637 22.4985 20.9135 23.1165 21.0265C23.842 21.1595 24.6095 21.1885 25.291 21.4235L26.1025 21.5205C25.8775 20.632 26.0005 19.449 26.2725 18.536C26.587 17.481 27.662 16.58 28.626 16.125C29.525 15.7005 31.007 15.5105 31.944 15.872C32.4235 16.057 32.9195 16.2755 33.365 16.5235C33.7805 16.755 33.984 17.2885 34.4425 17.2295C35.2495 17.125 36.4865 16.6255 36.9755 15.917C36.9555 17.1655 36.2195 17.9005 35.2885 18.658C36.05 18.4355 36.956 18.3715 37.6835 18.0505C37.4885 18.442 37.2635 18.6935 36.9435 18.9945Z" fill="#1DA1F2"/>
</svg>
