<svg width="43" height="42" viewBox="0 0 43 42" fill="none" xmlns="http://www.w3.org/2000/svg">
<path d="M21.5 1.61072C10.6779 1.61072 1.90524 10.2793 1.90524 20.9731C1.90524 31.6669 10.6779 40.3356 21.5 40.3356C32.3221 40.3356 41.0948 31.6669 41.0948 20.9731C41.0948 10.2793 32.3221 1.61072 21.5 1.61072ZM31.64 15.935C31.266 16.2835 30.7995 16.9098 30.3211 17.1061C30.4132 17.5352 30.3206 18.0327 30.2336 18.4622C30.1343 18.9517 30.2141 19.4861 30.0621 19.9593C29.9008 20.4618 29.8533 20.9824 29.683 21.4836C29.4865 22.0625 29.1388 22.6669 28.8001 23.1707C28.5072 23.6065 28.3055 24.0713 28.0237 24.5033C27.6989 25.0004 27.2515 25.3129 26.872 25.7315C26.3036 26.3582 25.5107 26.8779 24.778 27.3657C24.1718 27.7689 23.4646 27.9442 22.8002 28.2428C22.54 28.3599 22.2246 28.4568 21.9402 28.5293C21.6838 28.5944 21.2513 28.7538 20.9758 28.7538L20.4799 28.8381C20.2792 28.8561 19.7761 28.8184 19.5155 28.8356C19.2553 28.8519 19.0048 28.7802 18.7382 28.781C18.0849 28.7823 17.4304 28.7613 16.7872 28.6778C15.667 28.5323 14.3757 28.0369 13.4532 27.3859C13.2868 27.2684 13.1603 27.1027 12.9952 26.9828C13.9614 27.2068 15.1801 27.1711 16.1004 26.7647C16.6107 26.539 17.1897 26.4392 17.6477 26.1204C17.9996 25.8746 18.4114 25.6103 18.7696 25.4111C17.9427 25.3347 17.1795 25.0965 16.4285 24.7043C16.0584 24.5113 15.0799 23.4446 15.0842 22.6321C15.6585 22.6216 16.176 22.698 16.7584 22.6216C16.3475 22.5138 16.0057 22.3368 15.6296 22.0893C15.206 21.8112 14.8511 21.6048 14.4126 21.1317C13.8973 20.5763 13.7309 19.5092 13.789 18.7382C14.0548 18.7642 14.2768 18.9316 14.5349 19.0079C14.8019 19.0864 15.1181 19.0755 15.3724 19.1996C14.5268 18.9278 14.0917 17.5939 13.8735 16.8502C13.6192 15.9849 14.1588 14.0247 14.1766 13.974C14.8358 14.4689 15.3189 15.2152 15.982 15.6665C16.3657 15.9274 16.8021 16.216 17.1735 16.4752C17.362 16.6065 17.5046 16.6678 17.6961 16.8087C17.8629 16.9308 18.1176 17.018 18.3031 17.1007C18.7807 17.3129 19.3763 17.5449 19.9009 17.6397C20.5169 17.7512 21.1685 17.7756 21.7471 17.9727L22.436 18.0541C22.245 17.3087 22.3494 16.3163 22.5804 15.5503C22.8474 14.6652 23.76 13.9094 24.5785 13.5277C25.3417 13.1715 26.5999 13.0121 27.3954 13.3154C27.8025 13.4706 28.2236 13.6539 28.6018 13.862C28.9546 14.0562 29.1274 14.5038 29.5166 14.4543C30.2018 14.3666 31.252 13.9475 31.6671 13.3532C31.6501 14.4006 31.0253 15.0172 30.2349 15.6527C30.8814 15.466 31.6506 15.4123 32.2682 15.143C32.1027 15.4715 31.9116 15.6824 31.64 15.935Z" fill="#F06B30"/>
</svg>
