<svg width="43" height="42" viewBox="0 0 43 42" fill="none" xmlns="http://www.w3.org/2000/svg">
<path d="M21.2248 1.61072C10.4027 1.61072 1.63007 10.2793 1.63007 20.9731C1.63007 31.6669 10.4027 40.3356 21.2248 40.3356C32.0469 40.3356 40.8196 31.6669 40.8196 20.9731C40.8196 10.2793 32.0469 1.61072 21.2248 1.61072ZM31.7557 28.3209C30.9195 28.8376 27.5214 28.9916 26.6987 28.401C26.2475 28.0772 25.8349 27.672 25.4431 27.2861C25.1688 27.0163 24.8577 26.8855 24.6221 26.5927C24.4298 26.3532 24.2978 26.0704 24.0953 25.8339C23.7536 25.4371 23.2276 25.0994 22.8116 25.5843C22.185 26.3137 22.9101 27.7462 22.0747 28.2911C21.7945 28.474 21.5118 28.5268 21.1616 28.5008L20.386 28.5356C19.9305 28.5444 19.2089 28.5486 18.6906 28.4564C18.1124 28.3532 17.6349 28.0411 17.1119 27.8121C16.1194 27.3771 15.1741 26.7844 14.4545 25.9635C12.4963 23.7277 9.86615 20.6531 8.84439 17.8423C8.63426 17.2647 8.07902 16.1208 8.60539 15.6254C9.3211 15.1116 12.8338 14.9668 13.3818 15.7613C13.6043 16.0843 13.7448 16.5566 13.9023 16.9228C14.0984 17.3792 14.2045 17.8091 14.511 18.2131C14.7822 18.5713 14.9822 18.9316 15.1919 19.3242C15.4275 19.7651 15.6499 20.1879 15.9365 20.5935C16.1309 20.8695 16.6449 21.4186 16.9697 21.4593C17.7626 21.5595 17.7134 19.6556 17.6544 19.1908C17.5979 18.7428 17.5835 18.2676 17.5984 17.8133C17.6111 17.4257 17.6463 16.8796 17.4141 16.5633C17.0355 16.0474 16.192 16.4333 16.1262 15.7399C16.2654 15.5432 16.2361 15.3687 17.1662 15.0658C17.8989 14.828 18.3722 14.8355 18.8553 14.8737C19.8401 14.9517 20.8844 14.6883 21.8353 15.0038C22.7437 15.3062 22.6032 16.5818 22.5726 17.346C22.5314 18.3892 22.5756 19.4077 22.5726 20.4668C22.5713 20.9488 22.5518 21.4182 23.147 21.3788C23.7047 21.3423 23.7616 20.8783 24.0278 20.4958C24.3979 19.9622 24.738 19.4211 25.1149 18.8897C25.623 18.1711 25.7767 17.3637 26.2551 16.6275C26.4262 16.3645 26.5735 15.8041 26.8371 15.596C27.0366 15.4379 27.4157 15.5205 27.6572 15.5205H28.2316C28.6709 15.5205 29.1192 15.5172 29.5709 15.5327C30.2212 15.5549 30.9496 15.4073 31.5944 15.4975C34.377 15.8855 28.097 21.7634 28.4239 22.8129C28.6497 23.5377 30.0824 24.3477 30.5994 24.9413C31.2858 25.7319 33.399 27.3037 31.7557 28.3209Z" fill="#F06B30"/>
</svg>
