<svg width="50" height="50" viewBox="0 0 50 50" fill="none" xmlns="http://www.w3.org/2000/svg">
<path d="M25 1.92004C12.253 1.92004 1.91998 12.253 1.91998 25C1.91998 37.747 12.253 48.08 25 48.08C37.747 48.08 48.08 37.747 48.08 25C48.08 12.253 37.747 1.92004 25 1.92004ZM37.404 33.7585C36.419 34.3745 32.4165 34.558 31.4475 33.854C30.916 33.468 30.43 32.985 29.9685 32.525C29.6455 32.2035 29.279 32.0475 29.0015 31.6985C28.775 31.413 28.6195 31.076 28.381 30.794C27.9785 30.321 27.359 29.9185 26.869 30.4965C26.131 31.366 26.985 33.0735 26.001 33.723C25.671 33.941 25.338 34.004 24.9255 33.973L24.012 34.0145C23.4755 34.025 22.6255 34.03 22.015 33.92C21.334 33.797 20.7715 33.425 20.1555 33.152C18.9865 32.6335 17.873 31.927 17.0255 30.9485C14.719 28.2835 11.621 24.6185 10.4175 21.268C10.17 20.5795 9.51598 19.216 10.136 18.6255C10.979 18.013 15.1165 17.8405 15.762 18.7875C16.024 19.1725 16.1895 19.7355 16.375 20.172C16.606 20.716 16.731 21.2285 17.092 21.71C17.4115 22.137 17.647 22.5665 17.894 23.0345C18.1715 23.56 18.4335 24.064 18.771 24.5475C19 24.8765 19.6055 25.531 19.988 25.5795C20.922 25.699 20.864 23.4295 20.7945 22.8755C20.728 22.3415 20.711 21.775 20.7285 21.2335C20.7435 20.7715 20.785 20.1205 20.5115 19.7435C20.0655 19.1285 19.072 19.5885 18.9945 18.762C19.1585 18.5275 19.124 18.3195 20.2195 17.9585C21.0825 17.675 21.64 17.684 22.209 17.7295C23.369 17.8225 24.599 17.5085 25.719 17.8845C26.789 18.245 26.6235 19.7655 26.5875 20.6765C26.539 21.92 26.591 23.134 26.5875 24.3965C26.586 24.971 26.563 25.5305 27.264 25.4835C27.921 25.44 27.988 24.887 28.3015 24.431C28.7375 23.795 29.138 23.15 29.582 22.5165C30.1805 21.66 30.3615 20.6975 30.925 19.82C31.1265 19.5065 31.3 18.8385 31.6105 18.5905C31.8455 18.402 32.292 18.5005 32.5765 18.5005H33.253C33.7705 18.5005 34.2985 18.4965 34.8305 18.515C35.5965 18.5415 36.4545 18.3655 37.214 18.473C40.4915 18.9355 33.0945 25.942 33.4795 27.193C33.7455 28.057 35.433 29.0225 36.042 29.73C36.8505 30.6725 39.3395 32.546 37.404 33.7585Z" fill="#4C75A3"/>
</svg>
