<svg width="44" height="42" viewBox="0 0 44 42" fill="none" xmlns="http://www.w3.org/2000/svg">
<path d="M22.2326 18.685C21.8824 18.4857 21.5271 18.3012 21.196 18.0709C20.8789 17.8507 20.6034 17.6305 20.2841 17.4157C20.1139 17.3012 19.7399 17.1888 19.7399 17.0789C19.7399 17.2408 19.7399 17.8901 19.7399 17.9799C19.7399 18.4996 19.7 21.1732 19.706 21.5084C19.7145 22.0692 19.6703 22.63 19.6911 23.1909C19.7106 23.7257 19.714 24.2366 19.6954 24.7953C19.6954 24.7953 21.0474 24.1464 21.2278 24.0344C21.9214 23.6028 22.601 23.1342 23.3117 22.7332C23.661 22.5361 24.0223 22.3616 24.3559 22.1388C24.659 21.9354 25.8336 20.9593 25.8743 20.9841C25.3318 20.6565 24.8059 20.3138 24.2404 20.0239C23.5171 19.6531 22.9372 19.0856 22.2326 18.685Z" fill="#F06B30"/>
<path d="M21.8624 1.61072C11.0403 1.61072 2.26764 10.2793 2.26764 20.9731C2.26764 31.6669 11.0403 40.3356 21.8624 40.3356C32.6845 40.3356 41.4572 31.6669 41.4572 20.9731C41.4572 10.2793 32.6845 1.61072 21.8624 1.61072ZM32.6251 25.1736C32.4226 26.1157 32.1675 27.1011 31.5138 27.8452C30.8044 28.6514 29.5827 28.4392 28.6068 28.5088C26.2343 28.6782 23.8669 28.5197 21.4927 28.5814C20.5168 28.6069 19.5544 28.5847 18.581 28.5369C17.6123 28.4891 16.5991 28.5914 15.6308 28.5142C15.0433 28.4668 14.452 28.4656 13.8666 28.3943C13.3971 28.3372 12.6873 28.2697 12.332 27.919C12.1593 27.7487 12.1028 27.484 11.953 27.2852L11.7369 26.9127C10.8068 24.953 10.8255 22.7953 10.8217 20.6543C10.8195 19.859 10.9172 19.0679 10.8955 18.2718C10.8815 17.7579 11.1175 17.2714 11.1498 16.7542C11.1829 16.2357 11.2818 15.7361 11.5357 15.2861C12.0298 14.4106 12.2798 13.9996 13.198 13.6283C13.6577 13.4421 14.5144 13.3901 15.0068 13.3993C15.593 13.4094 16.1805 13.4069 16.7659 13.4001C17.9562 13.3859 19.1448 13.3511 20.3346 13.3548C21.3696 13.3578 22.4176 13.3628 23.45 13.4266C24.4837 13.4895 25.5216 13.3918 26.5582 13.4178C27.4123 13.4392 28.2681 13.4375 29.1204 13.4996C29.7585 13.5461 30.5022 13.6229 31.0566 13.9731C31.3894 14.1833 31.7595 14.4639 31.9094 14.8087C32.3449 15.8108 32.7074 16.8255 32.7686 17.922C32.8314 19.0453 32.8458 20.1703 32.8768 21.2944C32.8823 21.4882 32.8883 21.6824 32.8946 21.8762C32.9324 22.9782 32.8556 24.0944 32.6251 25.1736Z" fill="#F06B30"/>
</svg>
