<svg width="50" height="50" viewBox="0 0 50 50" fill="none" xmlns="http://www.w3.org/2000/svg">
<path d="M25.436 22.2725C25.0235 22.035 24.605 21.815 24.215 21.5405C23.8415 21.278 23.517 21.0155 23.141 20.7595C22.9405 20.623 22.5 20.489 22.5 20.358C22.5 20.551 22.5 21.325 22.5 21.432C22.5 22.0515 22.453 25.2385 22.46 25.638C22.47 26.3065 22.418 26.975 22.4425 27.6435C22.4655 28.281 22.4695 28.89 22.4475 29.556C22.4475 29.556 24.04 28.7825 24.2525 28.649C25.0695 28.1345 25.87 27.576 26.707 27.098C27.1185 26.863 27.544 26.655 27.937 26.3895C28.294 26.147 29.6775 24.9835 29.7255 25.013C29.0865 24.6225 28.467 24.214 27.801 23.8685C26.949 23.4265 26.266 22.75 25.436 22.2725Z" fill="#C12025"/>
<path d="M25 1.92004C12.253 1.92004 1.92001 12.253 1.92001 25C1.92001 37.747 12.253 48.08 25 48.08C37.747 48.08 48.08 37.747 48.08 25C48.08 12.253 37.747 1.92004 25 1.92004ZM37.677 30.007C37.4385 31.13 37.138 32.3045 36.368 33.1915C35.5325 34.1525 34.0935 33.8995 32.944 33.9825C30.1495 34.1845 27.361 33.9955 24.5645 34.069C23.415 34.0995 22.2815 34.073 21.135 34.016C19.994 33.959 18.8005 34.081 17.66 33.989C16.968 33.9325 16.2715 33.931 15.582 33.846C15.029 33.778 14.193 33.6975 13.7745 33.2795C13.571 33.0765 13.5045 32.761 13.328 32.524L13.0735 32.08C11.978 29.744 12 27.172 11.9955 24.62C11.993 23.672 12.108 22.729 12.0825 21.78C12.066 21.1675 12.344 20.5875 12.382 19.971C12.421 19.353 12.5375 18.7575 12.8365 18.221C13.4185 17.1775 13.713 16.6875 14.7945 16.245C15.336 16.023 16.345 15.961 16.925 15.972C17.6155 15.984 18.3075 15.981 18.997 15.973C20.399 15.956 21.799 15.9145 23.2005 15.919C24.4195 15.9225 25.654 15.9285 26.87 16.0045C28.0875 16.0795 29.31 15.963 30.531 15.994C31.537 16.0195 32.545 16.0175 33.549 16.0915C34.3005 16.147 35.1765 16.2385 35.8295 16.656C36.2215 16.9065 36.6575 17.241 36.834 17.652C37.347 18.8465 37.774 20.056 37.846 21.363C37.92 22.702 37.937 24.043 37.9735 25.383C37.98 25.614 37.987 25.8455 37.9945 26.0765C38.039 27.39 37.9485 28.7205 37.677 30.007Z" fill="#C12025"/>
</svg>
