<svg width="60" height="60" viewBox="0 0 60 60" fill="none" xmlns="http://www.w3.org/2000/svg">
<g clip-path="url(#clip0_11_421)">
<path d="M30 0C13.4297 0 0 13.4297 0 30C0 46.5703 13.4297 60 30 60C46.5703 60 60 46.5703 60 30C60 13.4297 46.5703 0 30 0ZM44.8359 29.8359C43.3711 31.3008 40.998 31.3008 39.5332 29.8359L33.75 24.0586V45C33.75 47.073 32.0707 48.75 30 48.75C27.9293 48.75 26.25 47.073 26.25 45V24.0586L20.4609 29.8359C18.9961 31.3008 16.623 31.3008 15.1582 29.8359C13.6934 28.3711 13.6934 25.998 15.1582 24.5332L27.2402 12.4512C28.2773 11.4141 29.4258 11.25 30 11.25C30.572 11.25 31.7168 11.413 32.6543 12.3513L44.7363 24.4334C46.3008 26.0039 46.3008 28.3711 44.8359 29.8359Z" fill="#F06B30"/>
</g>
<defs>
<clipPath id="clip0_11_421">
<rect width="60" height="60" fill="white"/>
</clipPath>
</defs>
</svg>
