<svg width="118" height="51" viewBox="0 0 118 51" fill="none" xmlns="http://www.w3.org/2000/svg">
<path d="M59.17 28.1111H56.12V25.0555V22V18.9444V15.8889V12.8333V9.77775V6.7222V3.66664V0.611084H59.17H62.22H65.27H68.32H71.37H74.42V3.66664H71.37H68.32H65.27H62.22V6.7222V9.77775V12.8333H65.27H68.32H71.37V15.8889H68.32H65.27H62.22V18.9444V22V25.0555V28.1111H59.17ZM89.67 28.1111H86.62H83.57H80.52V25.0555H77.47V22V18.9444V15.8889V12.8333V9.77775V6.7222V3.66664H80.52V0.611084H83.57H86.62H89.67H92.72V3.66664H95.77V6.7222V9.77775V12.8333V15.8889V18.9444V22V25.0555H92.72V28.1111H89.67ZM86.62 25.0555H89.67V22V18.9444V15.8889V12.8333V9.77775V6.7222V3.66664H86.62H83.57V6.7222V9.77775V12.8333V15.8889V18.9444V22V25.0555H86.62ZM114.07 28.1111H111.02V25.0555V22H107.97H104.92V25.0555V28.1111H101.87H98.82V25.0555V22H101.87V18.9444V15.8889H104.92V12.8333H101.87V9.77775V6.7222H98.82V3.66664V0.611084H101.87H104.92V3.66664V6.7222H107.97H111.02V3.66664V0.611084H114.07H117.12V3.66664V6.7222H114.07V9.77775V12.8333H111.02V15.8889H114.07V18.9444V22H117.12V25.0555V28.1111H114.07Z" fill="black"/>
<path d="M64.66 50.1111H62.525H60.39H58.255V47.9722H56.12V45.8333V43.6944V41.5555V39.4166V37.2778V35.1389V33H58.255V30.8611H60.39H62.525H64.66H66.795V33H68.93V35.1389V37.2778H66.795H64.66V35.1389V33H62.525H60.39V35.1389V37.2778V39.4166V41.5555V43.6944V45.8333V47.9722H62.525H64.66V45.8333V43.6944V41.5555H62.525V39.4166H64.66H66.795H68.93V41.5555V43.6944V45.8333V47.9722H66.795V50.1111H64.66ZM82.1499 50.1111H80.0149V47.9722V45.8333V43.6944H77.8799H75.7449V45.8333V47.9722V50.1111H73.6099H71.4749V47.9722V45.8333V43.6944V41.5555V39.4166V37.2778V35.1389V33H73.6099V30.8611H75.7449H77.8799H80.0149H82.1499V33H84.2849V35.1389V37.2778V39.4166V41.5555V43.6944V45.8333V47.9722V50.1111H82.1499ZM77.8799 41.5555H80.0149V39.4166V37.2778V35.1389V33H77.8799H75.7449V35.1389V37.2778V39.4166V41.5555H77.8799ZM93.2348 41.5555V39.4166H91.0998V41.5555V43.6944V45.8333V47.9722V50.1111H88.9648H86.8298V47.9722V45.8333V43.6944V41.5555V39.4166V37.2778V35.1389V33V30.8611H88.9648V33H91.0998V35.1389H93.2348V37.2778H95.3698V35.1389H97.5048V33H99.6398V30.8611H101.775V33V35.1389V37.2778V39.4166V41.5555V43.6944V45.8333V47.9722V50.1111H99.6398H97.5048V47.9722V45.8333V43.6944V41.5555V39.4166H95.3698V41.5555H93.2348ZM114.995 47.9722H117.13V50.1111H114.995H112.86H110.725H108.59H106.455H104.32V47.9722V45.8333V43.6944V41.5555V39.4166V37.2778V35.1389V33V30.8611H106.455H108.59H110.725H112.86H114.995H117.13V33H114.995H112.86H110.725H108.59V35.1389V37.2778V39.4166H110.725H112.86H114.995V41.5555H112.86H110.725H108.59V43.6944V45.8333V47.9722H110.725H112.86H114.995Z" fill="black"/>
<mask id="mask0_78_344" style="mask-type:luminance" maskUnits="userSpaceOnUse" x="0" y="1" width="55" height="50">
<path d="M54.2168 1H0V50.3778H54.2168V1Z" fill="white"/>
</mask>
<g mask="url(#mask0_78_344)">
<path d="M22.6644 47.7764C22.6644 49.213 24.654 50.3777 27.1084 50.3777C29.5628 50.3777 31.5524 49.2132 31.5524 47.7764H22.6644Z" fill="#FFCD9B"/>
<path d="M46.6621 32.7423H27.1084H7.5548C7.5548 32.7423 3.99957 35.9802 3.99957 39.2181C3.99957 39.2181 16.4427 32.7423 19.1092 43.2654C19.6496 45.3984 19.998 50.5506 27.1084 48.1223C34.2188 50.5506 34.5673 45.3984 35.1077 43.2654C37.7739 32.7423 50.2172 39.2181 50.2172 39.2181C50.2172 35.9802 46.6621 32.7423 46.6621 32.7423Z" fill="#FFDEB7"/>
<path d="M31.619 16.38C31.619 16.38 44.9512 1 49.3951 1C52.0613 1 47.6174 20.4275 44.9512 26.903L31.619 16.38Z" fill="#FF8C46"/>
<path d="M49.3952 1C40.507 6.6663 36.9519 20.4275 36.9519 20.4275L36.6459 20.3478L31.619 16.38C31.619 16.38 44.9509 1 49.3952 1Z" fill="#F06B30"/>
<path d="M21.709 16.38C21.709 16.38 8.37692 1 3.93295 1C1.26657 1 5.71056 20.4275 8.37692 26.903L21.709 16.38Z" fill="#FF8C46"/>
<path d="M3.93298 1C12.8209 6.6663 16.3762 20.4275 16.3762 20.4275L16.6821 20.3478L21.7089 16.38C21.7089 16.38 8.37696 1 3.93298 1Z" fill="#F06B30"/>
<path d="M1.33319 38.2358C1.33319 38.2358 11.11 32.5693 18.2203 36.6168C21.9888 38.7618 20.8867 44.6778 27.1084 44.6778C33.3299 44.6778 32.2278 38.7618 35.9964 36.6168C43.1068 32.5693 52.8834 38.2358 52.8834 38.2358C48.4394 23.6652 37.161 13.9517 27.1084 13.9517C17.0556 13.9517 5.77717 23.6652 1.33319 38.2358Z" fill="#F06B30"/>
<path d="M19.9979 34.1882C20.9797 34.1882 21.7756 33.4635 21.7756 32.5693C21.7756 31.6753 20.9797 30.9503 19.9979 30.9503C19.0162 30.9503 18.2203 31.6753 18.2203 32.5693C18.2203 33.4635 19.0162 34.1882 19.9979 34.1882Z" fill="#464655"/>
<path d="M34.2188 34.1882C35.2007 34.1882 35.9966 33.4635 35.9966 32.5693C35.9966 31.6753 35.2007 30.9503 34.2188 30.9503C33.2372 30.9503 32.4413 31.6753 32.4413 32.5693C32.4413 33.4635 33.2372 34.1882 34.2188 34.1882Z" fill="#464655"/>
<path d="M30.2192 44.2224C30.2192 45.2002 28.8264 46.7013 27.1084 46.7013C25.3904 46.7013 23.9976 45.2002 23.9976 44.2224C23.9976 43.2444 25.3904 42.4517 27.1084 42.4517C28.8264 42.4517 30.2192 43.2444 30.2192 44.2224Z" fill="#464655"/>
</g>
</svg>
