<svg width="122" height="66" viewBox="0 0 122 66" fill="none" xmlns="http://www.w3.org/2000/svg">
<g id="Logo (2) 1">
<path id="Vector" d="M59.17 39.1111H56.12V36.0555V33V29.9444V26.8889V23.8333V20.7778V17.7222V14.6666V11.6111H59.17H62.22H65.27H68.32H71.37H74.42V14.6666H71.37H68.32H65.27H62.22V17.7222V20.7778V23.8333H65.27H68.32H71.37V26.8889H68.32H65.27H62.22V29.9444V33V36.0555V39.1111H59.17ZM89.67 39.1111H86.62H83.57H80.52V36.0555H77.47V33V29.9444V26.8889V23.8333V20.7778V17.7222V14.6666H80.52V11.6111H83.57H86.62H89.67H92.72V14.6666H95.77V17.7222V20.7778V23.8333V26.8889V29.9444V33V36.0555H92.72V39.1111H89.67ZM86.62 36.0555H89.67V33V29.9444V26.8889V23.8333V20.7778V17.7222V14.6666H86.62H83.57V17.7222V20.7778V23.8333V26.8889V29.9444V33V36.0555H86.62ZM114.07 39.1111H111.02V36.0555V33H107.97H104.92V36.0555V39.1111H101.87H98.82V36.0555V33H101.87V29.9444V26.8889H104.92V23.8333H101.87V20.7778V17.7222H98.82V14.6666V11.6111H101.87H104.92V14.6666V17.7222H107.97H111.02V14.6666V11.6111H114.07H117.12V14.6666V17.7222H114.07V20.7778V23.8333H111.02V26.8889H114.07V29.9444V33H117.12V36.0555V39.1111H114.07Z" fill="black"/>
<path id="Vector_2" d="M64.66 61.1111H62.525H60.39H58.255V58.9722H56.12V56.8333V54.6944V52.5555V50.4166V48.2778V46.1389V44H58.255V41.8611H60.39H62.525H64.66H66.795V44H68.93V46.1389V48.2778H66.795H64.66V46.1389V44H62.525H60.39V46.1389V48.2778V50.4166V52.5555V54.6944V56.8333V58.9722H62.525H64.66V56.8333V54.6944V52.5555H62.525V50.4166H64.66H66.795H68.93V52.5555V54.6944V56.8333V58.9722H66.795V61.1111H64.66ZM82.1499 61.1111H80.0149V58.9722V56.8333V54.6944H77.8799H75.7449V56.8333V58.9722V61.1111H73.6099H71.4749V58.9722V56.8333V54.6944V52.5555V50.4166V48.2778V46.1389V44H73.6099V41.8611H75.7449H77.8799H80.0149H82.1499V44H84.2849V46.1389V48.2778V50.4166V52.5555V54.6944V56.8333V58.9722V61.1111H82.1499ZM77.8799 52.5555H80.0149V50.4166V48.2778V46.1389V44H77.8799H75.7449V46.1389V48.2778V50.4166V52.5555H77.8799ZM93.2348 52.5555V50.4166H91.0998V52.5555V54.6944V56.8333V58.9722V61.1111H88.9648H86.8298V58.9722V56.8333V54.6944V52.5555V50.4166V48.2778V46.1389V44V41.8611H88.9648V44H91.0998V46.1389H93.2348V48.2778H95.3698V46.1389H97.5048V44H99.6398V41.8611H101.775V44V46.1389V48.2778V50.4166V52.5555V54.6944V56.8333V58.9722V61.1111H99.6398H97.5048V58.9722V56.8333V54.6944V52.5555V50.4166H95.3698V52.5555H93.2348ZM114.995 58.9722H117.13V61.1111H114.995H112.86H110.725H108.59H106.455H104.32V58.9722V56.8333V54.6944V52.5555V50.4166V48.2778V46.1389V44V41.8611H106.455H108.59H110.725H112.86H114.995H117.13V44H114.995H112.86H110.725H108.59V46.1389V48.2778V50.4166H110.725H112.86H114.995V52.5555H112.86H110.725H108.59V54.6944V56.8333V58.9722H110.725H112.86H114.995Z" fill="black"/>
<g id="Clip path group">
<mask id="mask0_1_765" style="mask-type:luminance" maskUnits="userSpaceOnUse" x="0" y="12" width="55" height="50">
<g id="clip0_4_121">
<path id="Vector_3" d="M54.2168 12H0V61.3778H54.2168V12Z" fill="white"/>
</g>
</mask>
<g mask="url(#mask0_1_765)">
<g id="Group">
<path id="Vector_4" d="M22.6644 58.7764C22.6644 60.213 24.654 61.3777 27.1084 61.3777C29.5628 61.3777 31.5524 60.2132 31.5524 58.7764H22.6644Z" fill="#FFCD9B"/>
<path id="Vector_5" d="M46.6621 43.7423H27.1084H7.5548C7.5548 43.7423 3.99957 46.9802 3.99957 50.2181C3.99957 50.2181 16.4427 43.7423 19.1092 54.2654C19.6496 56.3984 19.998 61.5506 27.1084 59.1223C34.2188 61.5506 34.5673 56.3984 35.1077 54.2654C37.7739 43.7423 50.2172 50.2181 50.2172 50.2181C50.2172 46.9802 46.6621 43.7423 46.6621 43.7423Z" fill="#FFDEB7"/>
<path id="Vector_6" d="M31.619 27.38C31.619 27.38 44.9512 12 49.3951 12C52.0613 12 47.6174 31.4275 44.9512 37.903L31.619 27.38Z" fill="#FF8C46"/>
<path id="Vector_7" d="M49.3952 12C40.507 17.6663 36.9519 31.4275 36.9519 31.4275L36.6459 31.3478L31.619 27.38C31.619 27.38 44.9509 12 49.3952 12Z" fill="#F06B30"/>
<path id="Vector_8" d="M21.709 27.38C21.709 27.38 8.37692 12 3.93295 12C1.26657 12 5.71056 31.4275 8.37692 37.903L21.709 27.38Z" fill="#FF8C46"/>
<path id="Vector_9" d="M3.93298 12C12.8209 17.6663 16.3762 31.4275 16.3762 31.4275L16.6821 31.3478L21.7089 27.38C21.7089 27.38 8.37696 12 3.93298 12Z" fill="#F06B30"/>
<path id="Vector_10" d="M1.33319 49.2358C1.33319 49.2358 11.11 43.5693 18.2203 47.6168C21.9888 49.7618 20.8867 55.6778 27.1084 55.6778C33.3299 55.6778 32.2278 49.7618 35.9964 47.6168C43.1068 43.5693 52.8834 49.2358 52.8834 49.2358C48.4394 34.6652 37.161 24.9517 27.1084 24.9517C17.0556 24.9517 5.77717 34.6652 1.33319 49.2358Z" fill="#F06B30"/>
<path id="Vector_11" d="M19.9979 45.1882C20.9797 45.1882 21.7756 44.4635 21.7756 43.5693C21.7756 42.6753 20.9797 41.9503 19.9979 41.9503C19.0162 41.9503 18.2203 42.6753 18.2203 43.5693C18.2203 44.4635 19.0162 45.1882 19.9979 45.1882Z" fill="#464655"/>
<path id="Vector_12" d="M34.2188 45.1882C35.2007 45.1882 35.9966 44.4635 35.9966 43.5693C35.9966 42.6753 35.2007 41.9503 34.2188 41.9503C33.2372 41.9503 32.4413 42.6753 32.4413 43.5693C32.4413 44.4635 33.2372 45.1882 34.2188 45.1882Z" fill="#464655"/>
<path id="Vector_13" d="M30.2192 55.2224C30.2192 56.2002 28.8264 57.7013 27.1084 57.7013C25.3904 57.7013 23.9976 56.2002 23.9976 55.2224C23.9976 54.2444 25.3904 53.4517 27.1084 53.4517C28.8264 53.4517 30.2192 54.2444 30.2192 55.2224Z" fill="#464655"/>
</g>
</g>
</g>
</g>
</svg>
