<svg width="30" height="30" viewBox="0 0 30 30" fill="none" xmlns="http://www.w3.org/2000/svg">
<g id="&#208;&#183;&#208;&#178;&#208;&#181;&#208;&#183;&#208;&#180;&#208;&#190;&#209;&#135;&#208;&#186;&#208;&#176;">
<g id="Group">
<g id="Group_2">
<path id="Vector" d="M11.7025 11.4475C11.7025 11.4475 7.75248 11.885 5.11748 12.1775C4.87998 12.2062 4.66998 12.365 4.59123 12.6062C4.51248 12.8475 4.59123 13.0987 4.76623 13.2575C6.72373 15.0437 9.66498 17.7187 9.66498 17.7187C9.66248 17.7187 8.85748 21.61 8.32248 24.2062C8.27748 24.4412 8.36248 24.69 8.56748 24.8387C8.77123 24.9875 9.03373 24.99 9.23998 24.8737C11.545 23.5637 14.9975 21.5937 14.9975 21.5937C14.9975 21.5937 18.4512 23.5637 20.7525 24.875C20.9625 24.99 21.225 24.9875 21.4287 24.8387C21.6337 24.69 21.7187 24.4412 21.6725 24.2075C21.1375 21.61 20.3337 17.7187 20.3337 17.7187C20.3337 17.7187 23.275 15.0437 25.2325 13.2612C25.4075 13.0975 25.485 12.8462 25.4075 12.6062C25.33 12.3662 25.12 12.2075 24.8825 12.18C22.2475 11.885 18.2962 11.4475 18.2962 11.4475C18.2962 11.4475 16.6587 7.825 15.5675 5.41C15.465 5.19375 15.25 5.0425 14.9975 5.0425C14.745 5.0425 14.5287 5.195 14.4312 5.41C13.3387 7.825 11.7025 11.4475 11.7025 11.4475Z" fill="#F06B30"/>
</g>
</g>
</g>
</svg>
